<svg xmlns="http://www.w3.org/2000/svg" viewBox="0 0 900 1100" role="img" aria-label="Placeholder champagne Pose d'Aura">
  <defs>
    <radialGradient id="glow" cx="50%" cy="34%" r="58%">
      <stop offset="0%" stop-color="#fffaf4" stop-opacity=".4"/>
      <stop offset="50%" stop-color="#e1d8cf" stop-opacity=".15"/>
      <stop offset="100%" stop-color="#0d0c0b" stop-opacity="0"/>
    </radialGradient>
    <linearGradient id="bg" x1="0" y1="0" x2="1" y2="1">
      <stop offset="0%" stop-color="#3c3027"/>
      <stop offset="52%" stop-color="#191411"/>
      <stop offset="100%" stop-color="#0d0c0b"/>
    </linearGradient>
    <linearGradient id="gold" x1="0" y1="0" x2="1" y2="1">
      <stop offset="0%" stop-color="#fff2d4"/>
      <stop offset="42%" stop-color="#d8b678"/>
      <stop offset="100%" stop-color="#8f7047"/>
    </linearGradient>
  </defs>
  <rect width="900" height="1100" fill="url(#bg)"/>
  <circle cx="450" cy="390" r="430" fill="url(#glow)"/>
  <g transform="translate(242 210)">
    <rect x="86" y="28" width="74" height="424" rx="37" fill="#d6b6a2"/>
    <rect x="188" y="0" width="82" height="478" rx="41" fill="#d9b9a7"/>
    <rect x="300" y="52" width="74" height="408" rx="37" fill="#cfae9c"/>
    <path d="M100 78h48M204 52h50M315 102h45" stroke="url(#gold)" stroke-width="14" stroke-linecap="round"/>
    <circle cx="232" cy="547" r="116" fill="#dfc1aa"/>
    <path d="M70 572c93 48 294 48 386 0" stroke="#c7aa79" stroke-opacity=".52" stroke-width="5"/>
    <circle cx="416" cy="150" r="12" fill="#c7aa79" opacity=".75"/>
    <circle cx="446" cy="212" r="7" fill="#fffaf4" opacity=".8"/>
    <circle cx="386" cy="238" r="5" fill="#c7aa79" opacity=".75"/>
  </g>
  <path d="M64 162h158" stroke="#e1d8cf" stroke-opacity=".45"/>
  <text x="64" y="948" fill="#e1d8cf" font-family="Arial, sans-serif" font-size="24" letter-spacing="0">POSE 06</text>
  <text x="64" y="1002" fill="#fffaf4" font-family="Georgia, serif" font-size="54" font-style="italic">Champagne</text>
</svg>
